# xmcd
#
# Track frame offsets:
#	150
#	19782
#	41895
#	57927
#	74835
#	91967
#	107792
#	126167
#	146012
#	161365
#	176475
#	189660
#
# Disc length: 2731 seconds
#
# Revision: 0
# Processed by: cddbd v1.4PL0 Copyright (c) Steve Scherf et al.
# Submitted via: dBpowerAMP V4.0
#
DISCID=ae0aa90c
DTITLE=Mônica Tomasi - 1º
DYEAR=1900
DGENRE=Electronic
TTITLE0=Trilhos
TTITLE1=Esse Tal Samba Enredo
TTITLE2=Breve Estação
TTITLE3=Um Girassol da Cor de seu Cabelo
TTITLE4=La Nave Va
TTITLE5=Primeiro
TTITLE6=Tipo
TTITLE7=Flores e Bocas
TTITLE8=Eu Sigo
TTITLE9=Contra a Corrente
TTITLE10=Foragidos
TTITLE11=Dia Em Que o Super-Homem Fugiu
EXTD=
EXTT0=
EXTT1=
EXTT2=
EXTT3=
EXTT4=
EXTT5=
EXTT6=
EXTT7=
EXTT8=
EXTT9=
EXTT10=
EXTT11=
PLAYORDER=
